<?xml version="1.0" encoding="utf-8"?>

<!-- License Agreement at http://iconmonstr.com/license/ -->

<!DOCTYPE svg PUBLIC "-//W3C//DTD SVG 1.1//EN" "http://www.w3.org/Graphics/SVG/1.1/DTD/svg11.dtd">
<svg version="1.1" xmlns="http://www.w3.org/2000/svg" xmlns:xlink="http://www.w3.org/1999/xlink" x="0px" y="0px"
	 width="512px" height="512px" viewBox="0 0 512 512" style="enable-background:new 0 0 512 512;" xml:space="preserve">
<path id="award-8" d="M301.23,306.324c-12.674,8.684-18.005,14.266-34.232,17.233c8.063,51.803,30.059,98.979,64.543,138.442
	c1.996-14.082,7.713-27.712,13.16-38.625c15.156,7.979,33.966,11.434,48.635,9.605c-36.463-37.972-54.619-77.234-60-129.607
	C321.566,307.212,313.67,306.324,301.23,306.324z M178.665,303.373c-5.381,52.373-23.538,91.636-60,129.607
	c14.669,1.828,33.479-1.626,48.634-9.605c5.448,10.913,11.165,24.543,13.16,38.625c34.485-39.464,56.48-86.64,64.544-138.442
	c-16.228-2.968-21.56-8.55-34.233-17.233C198.33,306.324,190.434,307.212,178.665,303.373z M256,101.501
	c-37.854,0-68.668,30.806-68.668,68.668c0,37.863,30.813,68.668,68.668,68.668c37.871,0,68.668-30.805,68.668-68.668
	C324.668,132.307,293.871,101.501,256,101.501z M374.895,192.098c0.872,2.515,1.274,5.088,1.274,7.636
	c0,7.712-3.806,15.164-10.562,19.85c-21.56,14.938-18.709,11.182-26.824,35.482c-3.402,10.144-13.21,16.999-24.274,16.999
	c-0.017,0-0.034,0-0.067,0c-26.588-0.092-21.961-1.517-43.403,13.538c-4.477,3.151-9.757,4.728-15.038,4.728
	c-5.281,0-10.562-1.576-15.038-4.728c-21.442-15.063-16.832-13.63-43.403-13.538c-0.017,0-0.05,0-0.067,0
	c-11.064,0-20.872-6.855-24.258-16.999c-8.114-24.334-5.331-20.562-26.824-35.482c-6.773-4.694-10.578-12.146-10.578-19.857
	c0-2.549,0.419-5.113,1.274-7.628c8.298-24.217,8.315-19.548,0-43.865c-0.855-2.515-1.274-5.088-1.274-7.628
	c0-7.72,3.805-15.163,10.578-19.857c21.476-14.904,18.693-11.132,26.824-35.482c3.386-10.143,13.194-16.999,24.258-16.999
	c0.017,0,0.034,0,0.067,0c26.521,0.092,21.811,1.626,43.403-13.555C245.438,51.567,250.719,50,256,50
	c5.281,0,10.562,1.567,15.038,4.711c21.442,15.071,16.831,13.646,43.403,13.555c0.018,0,0.051,0,0.067,0
	c11.064,0,20.872,6.856,24.274,16.999c8.115,24.3,5.265,20.545,26.824,35.482c6.756,4.686,10.562,12.129,10.562,19.841
	c0,2.548-0.402,5.13-1.274,7.645C366.613,172.44,366.58,167.78,374.895,192.098z M341.835,170.169
	c0-47.402-38.425-85.835-85.835-85.835c-47.394,0-85.835,38.433-85.835,85.835s38.441,85.835,85.835,85.835
	C303.41,256.004,341.835,217.571,341.835,170.169z"/>
</svg>
