<?xml version="1.0" encoding="UTF-8" standalone="no"?>
<!-- Created with Inkscape (http://www.inkscape.org/) -->
<svg id="svg2" xmlns:rdf="http://www.w3.org/1999/02/22-rdf-syntax-ns#" xmlns="http://www.w3.org/2000/svg" height="60" width="60" version="1.1" xmlns:cc="http://creativecommons.org/ns#" xmlns:dc="http://purl.org/dc/elements/1.1/">
 <metadata id="metadata7">
  <rdf:RDF>
   <cc:Work rdf:about="">
    <dc:format>image/svg+xml</dc:format>
    <dc:type rdf:resource="http://purl.org/dc/dcmitype/StillImage"/>
    <dc:title/>
   </cc:Work>
  </rdf:RDF>
 </metadata>
 <g id="layer1" transform="translate(-363.05274,-563.05709)">
  <path id="path3045" d="m379.26,623.05c-0.0433-0.005-0.0699-0.0101-0.059-0.0122,0.0108-0.004-0.027-0.0119-0.084-0.022-0.25936-0.0469-0.5163-0.16368-0.72871-0.33139-0.20572-0.16238-1.9769-1.9686-2.6285-2.6804-1.455-1.5895-2.3533-2.8683-2.9914-4.2582-0.65442-1.4254-1.0418-2.9646-1.2028-4.7792-0.0281-0.31595-0.0711-1.035-0.0733-1.2233,0-0.0927-0.005-0.13863-0.0104-0.11159-0.0227,0.1217-0.0274-1.809-0.0274-11.377,0-9.4826,0.004-11.063,0.0263-10.95,0.004,0.0216,0.0119-0.0433,0.0166-0.14442,0.0115-0.24183,0.0548-0.65719,0.0954-0.91907,0.28686-1.8484,1.0084-3.4626,2.3418-5.2387,0.37606-0.50093,0.701-0.89614,1.4197-1.7265,0.86723-1.0021,1.0935-1.2736,1.3898-1.6675,0.55928-0.74355,0.8681-1.3408,0.97979-1.8949,0.023-0.11379,0.0401-0.26537,0.0531-0.46763,0.0144-0.22296,0.027-0.33096,0.0507-0.42358,0.23397-0.9223,1.1691-1.4426,2.0726-1.1531,0.48884,0.15662,0.88365,0.55503,1.039,1.0485,0.0555,0.17627,0.0736,0.31264,0.0736,0.55471,0,1.2587-0.45529,2.541-1.3702,3.859-0.41058,0.59147-0.76982,1.0326-1.9514,2.3962-1.1565,1.3345-1.7158,2.109-2.1809,3.0198-0.29907,0.58563-0.4879,1.0984-0.6213,1.6874-0.14079,0.62136-0.17743,1.0826-0.17801,2.2407-0.00028,0.5578,0.004,0.63498,0.0202,0.65319,0.0187,0.0187,1.7018,0.0205,18.321,0.0205,16.62,0,18.303-0.004,18.321-0.0205,0.0187-0.0187,0.0205-0.19086,0.0202-1.7036-0.00033-1.7018-0.008-2.1374-0.0452-2.4707-0.14017-1.2658-0.61784-2.2193-1.6084-3.2107-0.3519-0.35223-0.50752-0.48722-1.6559-1.4367-0.68919-0.5698-1.0792-0.92731-1.4541-1.3331-0.85657-0.92702-1.3464-1.931-1.4991-3.0723-0.0387-0.28913-0.0499-0.79024-0.0212-0.95366,0.13927-0.79589,0.79974-1.3572,1.5971-1.3572,0.57988,0,1.1048,0.30075,1.398,0.80093,0.14309,0.24409,0.19791,0.45211,0.22329,0.84772,0.0202,0.31324,0.0397,0.43372,0.10003,0.61507,0.12207,0.36699,0.34165,0.68149,0.78523,1.1246,0.29845,0.29813,0.40569,0.39294,0.99243,0.87785,1.0212,0.84391,1.1293,0.93627,1.523,1.3011,0.73026,0.6767,1.3548,1.4382,1.7819,2.1726,0.61496,1.0576,0.96399,2.1893,1.081,3.5056,0.0104,0.11552,0.0194,0.25435,0.0202,0.30853,0,0.0635,0.005,0.0868,0.0108,0.0657,0.005-0.018,0.0133,0.11141,0.0184,0.28769,0.0119,0.4271,0.0115,22.937,0,23.634-0.005,0.29967-0.0133,0.52419-0.018,0.49892-0.005-0.027-0.009,0.0187-0.0104,0.11159-0.004,0.33991-0.0652,1.2005-0.1198,1.6828-0.30762,2.7186-1.1549,4.8481-2.7627,6.9433-0.75071,0.97836-1.6043,1.9147-3.2507,3.5659-0.47436,0.47577-0.77418,0.7664-0.83152,0.80611-0.19085,0.13218-0.4434,0.23672-0.66043,0.27336-0.0539,0.009-0.0947,0.0198-0.0906,0.0241,0.004,0.004-0.0503,0.0112-0.12081,0.0158-0.1695,0.0112-27.415,0.007-27.516-0.004zm27.221-3.696c1.6467-1.6747,2.4114-2.5448,3.058-3.4793,0.84549-1.2222,1.3499-2.4617,1.6134-3.9645,0.0328-0.18696,0.0331-0.19715,0.0112-0.21335-0.0346-0.0252-36.187-0.0252-36.222,0-0.0223,0.0162-0.0216,0.0263,0.0112,0.21335,0.19196,1.0948,0.528,2.0922,0.99728,2.9601,0.57588,1.065,1.3639,2.0812,2.6979,3.4792,0.46965,0.49215,1.399,1.4342,1.4255,1.445,0.0147,0.006,5.8636,0.01,12.997,0.008l12.971-0.004,0.43895-0.4464zm-12.969-12.245c1.2145-0.073,2.4108-0.37757,3.3743-0.85902,0.21281-0.10634,0.26385-0.14089,0.24171-0.16346-0.008-0.008-0.0827-0.046-0.16619-0.0845-1.4678-0.67544-2.4162-1.9657-2.5439-3.4609-0.0652-0.76345,0.13689-1.5979,0.55441-2.2894,0.0674-0.11152,0.0757-0.13218,0.0598-0.14812-0.0216-0.0216-0.37901-0.0934-0.70021-0.14082-0.48214-0.0712-0.91277-0.10147-1.4435-0.10147-1.2172,0-2.3703,0.20759-3.4006,0.61216-0.81231,0.31899-1.424,0.69977-1.9176,1.1937-0.45053,0.45086-0.73303,0.94236-0.83515,1.453-0.0426,0.21278-0.0426,0.53301,0.00014,0.74604,0.0797,0.39855,0.28178,0.80881,0.58004,1.1774,0.1824,0.22548,0.51501,0.53358,0.79406,0.73559,0.92662,0.67094,2.2474,1.1314,3.7028,1.291,0.56202,0.0616,1.1111,0.0742,1.7,0.0387zm6.1315-1.954c0.56339-0.086,1.1047-0.29031,1.5416-0.58181,1.0108-0.67429,1.5065-1.8117,1.2556-2.8807-0.28661-1.2211-1.3606-2.1192-2.8038-2.3446-0.15604-0.0245-0.23836-0.0288-0.54488-0.0288-0.30651,0-0.38883,0.004-0.54488,0.0288-1.4432,0.22537-2.5172,1.1235-2.8038,2.3446-0.2037,0.86788,0.0873,1.8057,0.77123,2.4858,0.56633,0.56313,1.3894,0.92734,2.2755,1.0069,0.16061,0.0144,0.68199-0.004,0.85344-0.0302zm-3.4493-6.2133c0.0737-0.0517,0.20417-0.13586,0.2898-0.18712,0.14493-0.0867,0.16415-0.1032,0.27704-0.23757,0.7303-0.86957,1.3963-2.0326,1.7468-3.0505,0.37574-1.0911,0.42339-2.0661,0.11918-2.4373-0.11879-0.14496-0.34499-0.18484-0.63317-0.11166-0.8356,0.2122-1.9679,1.191-2.8627,2.4746-0.1355,0.19438-0.36965,0.5605-0.44352,0.69351l-0.0497,0.0895,0.0925,0.2781c0.25993,0.78145,0.37476,1.468,0.35107,2.099l-0.009,0.24539,0.0503,0.0126c0.0277,0.007,0.14489,0.0338,0.26047,0.0598,0.11559,0.0259,0.30172,0.0733,0.4136,0.105s0.21692,0.0583,0.23344,0.0591c0.0176,0,0.0847-0.0367,0.16411-0.0923zm-4.5925-0.28053c0.53587-0.0644,1.3055-0.0888,1.8662-0.0593,0.2987,0.0158,0.31235,0.0155,0.3302-0.008,0.0151-0.0198,0.0173-0.072,0.0112-0.28696-0.0101-0.35565-0.0474-0.60158-0.15411-1.0166-0.29787-1.1582-1.0406-2.4987-2.0192-3.6444-0.23661-0.27703-0.75085-0.79434-0.98368-0.98955-0.6969-0.58433-1.374-0.9627-1.9082-1.0663-0.14628-0.0284-0.36514-0.0331-0.47338-0.0108-0.40889,0.0853-0.59719,0.5064-0.56,1.2525,0.0346,0.69175,0.31417,1.5974,0.75621,2.4487,0.68326,1.3159,1.6364,2.4981,2.663,3.303l0.14352,0.11256,0.0788-0.007c0.0433-0.004,0.15558-0.0166,0.24947-0.0277zm-10.384-15.56c-0.38937-0.0703-0.75027-0.2861-0.98577-0.58945-0.15197-0.19574-0.23793-0.37054-0.30615-0.62252-0.0313-0.11552-0.0342-0.14687-0.0338-0.38189,0.00025-0.23311,0.004-0.26728,0.0342-0.38189,0.17441-0.64992,0.65921-1.1007,1.305-1.2133,0.1005-0.0176,1.4503-0.0198,11.822-0.0198,10.506,0,11.72,0.004,11.825,0.0202,0.16761,0.0292,0.38157,0.1041,0.51403,0.17991,0.40616,0.23235,0.66249,0.56824,0.78826,1.0328,0.0313,0.11551,0.0338,0.14687,0.0338,0.38189-0.00028,0.23311-0.004,0.26727-0.0342,0.38189-0.1744,0.64992-0.65921,1.1006-1.305,1.2133-0.1005,0.0176-1.448,0.0198-11.833,0.0187-10.086,0-11.734-0.004-11.823-0.0198zm-2.0616-10.497c-0.5961-0.0869-1.1106-0.52347-1.2949-1.0986-0.0839-0.26195-0.079-0.0209-0.0752-3.7059l0.004-3.3542,0.0349-0.12585c0.11256-0.40694,0.32213-0.71374,0.64546-0.94477,0.17012-0.12159,0.43398-0.22998,0.64758-0.26605,0.0539-0.009,0.0947-0.0198,0.0906-0.0241-0.004-0.004,0.0503-0.0112,0.1208-0.0158,0.16857-0.0112,27.299-0.0112,27.456,0,0.0723,0.005,0.11403,0.013,0.10377,0.0194-0.0112,0.007,0,0.0112,0.0302,0.0112,0.0263,0.00011,0.10345,0.0144,0.17181,0.0317,0.55471,0.14071,0.98311,0.53761,1.1532,1.0684,0.0839,0.26196,0.079,0.0209,0.0752,3.7059l-0.004,3.3542-0.0349,0.12584c-0.18132,0.65572-0.66029,1.1007-1.306,1.2133-0.10061,0.0176-1.6753,0.0194-13.927,0.0184-7.6655,0-13.848-0.006-13.892-0.013zm25.916-3.236c0.0184-0.0184,0.0205-0.17401,0.0205-1.5155s-0.004-1.497-0.0205-1.5155c-0.0187-0.0187-1.1289-0.0205-12.019-0.0205s-12,0.004-12.019,0.0205c-0.0184,0.0184-0.0205,0.17401-0.0205,1.5155s0.004,1.497,0.0205,1.5155c0.0187,0.0187,1.1289,0.0205,12.019,0.0205s12-0.004,12.019-0.0205z" fill="#000"/>
 </g>
</svg>
