<?xml version="1.0" encoding="UTF-8" standalone="no"?>
<svg id="svg4161" xmlns:rdf="http://www.w3.org/1999/02/22-rdf-syntax-ns#" xmlns="http://www.w3.org/2000/svg" height="18.062mm" viewBox="0 0 63.999998 63.999997" width="18.062mm" version="1.1" xmlns:cc="http://creativecommons.org/ns#" xmlns:dc="http://purl.org/dc/elements/1.1/">
 <g id="layer1" transform="matrix(.80943 0 0 .80943 -268.8 -516.07)">
  <path id="path4720" d="m370.79 709.1c-3.9577-0.10116-7.8361-0.9261-11.47-2.4397-4.352-1.8127-8.2774-4.5911-11.45-8.1046-3.2874-3.6401-5.6902-7.967-7.0247-12.65-1.6926-5.9393-1.6296-12.307 0.18003-18.2 1.8514-6.0287 5.4727-11.401 10.385-15.406 3.8694-3.1546 8.3959-5.3514 13.245-6.4282 3.6466-0.80972 7.4558-0.97516 11.18-0.48553 5.1888 0.68225 10.117 2.6293 14.385 5.683 2.869 2.0529 5.3913 4.5751 7.4415 7.4414 1.4819 2.0718 2.7117 4.3123 3.6583 6.665 0.46651 1.1595 0.89017 2.43 1.2147 3.6429 1.2232 4.5717 1.4158 9.4164 0.56021 14.092-0.58816 3.2143-1.6838 6.3583-3.2148 9.2249-2.2368 4.1884-5.337 7.7953-9.1449 10.64-3.5718 2.668-7.6721 4.5601-12.015 5.5444-2.5784 0.5844-5.2617 0.84839-7.93 0.78019zm20.351-9.3095c0.68514-0.0678 1.3481-0.35008 1.8922-0.80565 0.14506-0.12146 0.39123-0.37115 0.49996-0.50713 0.42994-0.5377 0.68938-1.1535 0.76133-1.807 0.019-0.17263 0.0192-0.51496 0.0003-0.69-0.0784-0.72795-0.37175-1.3795-0.91837-2.04-0.0387-0.0467-5.3667-5.3821-11.84-11.856-8.5201-8.5214-11.767-11.775-11.761-11.785 0.005-0.008 0.061-0.0699 0.12546-0.13867 0.72921-0.77746 1.1906-1.677 1.3156-2.565 0.0225-0.1598 0.0256-0.5884 0.005-0.73-0.0701-0.48878-0.24861-0.90776-0.54759-1.285-0.0693-0.0874-14.289-14.32-14.444-14.457-0.19924-0.17625-0.43331-0.29624-0.68308-0.35016-0.11667-0.0252-0.41804-0.0249-0.53692 0.00047-0.19609 0.0419-0.37826 0.11989-0.55651 0.2383-0.14475 0.0961-0.35185 0.30219-0.44582 0.44354-0.31057 0.46715-0.34955 1.0015-0.10682 1.4645 0.12064 0.23013-0.2261-0.12359 5.1921 5.2966 4.3991 4.4007 5.008 5.0134 4.9988 5.03-0.0188 0.0339-2.0865 2.0939-2.1018 2.0939-0.008 0-2.2604-2.2448-5.0049-4.9885-5.1588-5.1572-5.0522-5.0521-5.2401-5.1636-0.13466-0.0799-0.28777-0.1398-0.44527-0.17409-0.11863-0.0258-0.3996-0.0262-0.51973-0.00061-0.31968 0.068-0.57152 0.20662-0.81042 0.44609-0.24203 0.2426-0.37671 0.48735-0.44628 0.81098-0.0257 0.11959-0.0255 0.40045 0.00047 0.51949 0.0343 0.1575 0.0942 0.31061 0.1741 0.44527 0.11154 0.18789 0.006 0.0813 5.1636 5.2401 2.7437 2.7445 4.9885 4.9967 4.9885 5.0049 0 0.0152-2.06 2.083-2.0939 2.1018-0.0166 0.009-0.62851-0.59895-5.03-4.9988-5.4204-5.4184-5.0664-5.0714-5.2966-5.1921-0.10713-0.0562-0.26225-0.11083-0.38951-0.13726-0.11533-0.024-0.35989-0.024-0.48828-0.0001-0.31088 0.0579-0.57929 0.20344-0.8226 0.44602-0.23674 0.23602-0.37777 0.48707-0.44407 0.79047-0.0222 0.1015-0.0309 0.35529-0.0158 0.46144 0.0366 0.25753 0.14485 0.49955 0.32051 0.71633 0.10258 0.12661 14.384 14.405 14.5 14.497 0.37723 0.29897 0.79486 0.47697 1.285 0.54767 0.14078 0.0203 0.56943 0.0171 0.73-0.005 0.90426-0.12707 1.803-0.59341 2.603-1.3506 0.0557-0.0527 0.10484-0.0959 0.10914-0.0959 0.004 0 5.3043 5.2957 11.778 11.768 6.4735 6.4726 11.808 11.8 11.855 11.839 0.65491 0.54203 1.3106 0.83859 2.03 0.91814 0.14253 0.0158 0.52254 0.0185 0.66144 0.005z"/>
 </g>
</svg>
