<?xml version="1.0" encoding="UTF-8" standalone="no"?>
<!-- Created with Inkscape (http://www.inkscape.org/) -->

<svg
   xmlns:dc="http://purl.org/dc/elements/1.1/"
   xmlns:cc="http://creativecommons.org/ns#"
   xmlns:rdf="http://www.w3.org/1999/02/22-rdf-syntax-ns#"
   xmlns:svg="http://www.w3.org/2000/svg"
   xmlns="http://www.w3.org/2000/svg"
   xmlns:sodipodi="http://sodipodi.sourceforge.net/DTD/sodipodi-0.dtd"
   xmlns:inkscape="http://www.inkscape.org/namespaces/inkscape"
   width="64"
   height="64"
   id="svg2"
   version="1.1"
   inkscape:version="0.48.5 r10040"
   sodipodi:docname="New document 2"
   viewbox="0 0 64 64">
  <defs
     id="defs4" />
  <sodipodi:namedview
     id="base"
     pagecolor="#ffffff"
     bordercolor="#666666"
     borderopacity="1.0"
     inkscape:pageopacity="0.0"
     inkscape:pageshadow="2"
     inkscape:zoom="6.4609375"
     inkscape:cx="15.980653"
     inkscape:cy="32.773881"
     inkscape:document-units="px"
     inkscape:current-layer="layer1"
     showgrid="false"
     inkscape:window-width="1920"
     inkscape:window-height="1015"
     inkscape:window-x="-4"
     inkscape:window-y="-4"
     inkscape:window-maximized="1">
    <inkscape:grid
       type="xygrid"
       id="grid3765"
       empspacing="16"
       visible="true"
       enabled="true"
       snapvisiblegridlinesonly="true"
       empcolor="#0000ff"
       empopacity="0.1372549" />
    <inkscape:grid
       type="axonomgrid"
       id="grid3767"
       units="mm"
       empspacing="5"
       visible="true"
       enabled="false"
       snapvisiblegridlinesonly="true" />
  </sodipodi:namedview>
  <metadata
     id="metadata7">
    <rdf:RDF>
      <cc:Work
         rdf:about="">
        <dc:format>image/svg+xml</dc:format>
        <dc:type
           rdf:resource="http://purl.org/dc/dcmitype/StillImage" />
        <dc:title></dc:title>
      </cc:Work>
    </rdf:RDF>
  </metadata>
  <g
     inkscape:label="Layer 1"
     inkscape:groupmode="layer"
     id="layer1"
     transform="translate(0,-988.36217)">
    <path
       d="m 54.028767,1048.9286 -3.433673,-3.4338 2.181014,-2.1809 2.181014,-2.181 3.433732,3.4338 3.433732,3.4337 -1.996868,1.9977 c -1.098277,1.0988 -2.079761,2.0802 -2.181073,2.1809 l -0.184203,0.1832 -3.433675,-3.4336 z m 4.768096,0.4115 c 0.781356,-0.7814 1.420647,-1.4277 1.420647,-1.4365 0,-0.016 -0.617934,-0.6429 -0.653642,-0.6625 -0.01793,-0.01 -0.195695,0.1639 -1.442279,1.4105 -0.78201,0.7819 -1.421834,1.4292 -1.421834,1.4383 0,0.017 0.648566,0.6708 0.666063,0.6708 0.0057,0 0.649689,-0.6393 1.431045,-1.4206 z m -1.428749,-1.4396 c 0.781356,-0.7813 1.420646,-1.4253 1.420646,-1.4311 0,-0.017 -0.750639,-0.7634 -0.768271,-0.7634 -0.01761,0 -2.857722,2.8341 -2.857722,2.8517 0,0.018 0.750639,0.7634 0.768271,0.7634 0.0091,0 0.655719,-0.6393 1.437076,-1.4206 z m -1.53166,-1.5207 c 0.947748,-0.9476 1.415318,-1.4224 1.415318,-1.4371 0,-0.014 -0.129501,-0.1512 -0.376487,-0.3978 -0.207068,-0.2067 -0.381154,-0.376 -0.386857,-0.376 -0.01737,0 -2.851825,2.8401 -2.851825,2.8574 0,0.022 0.747153,0.7686 0.768338,0.7686 0.0089,0 0.653088,-0.6368 1.431513,-1.4151 z m -1.519453,-1.5431 c 1.125302,-1.1258 1.40969,-1.4157 1.404488,-1.4322 -0.009,-0.028 -0.745124,-0.7617 -0.764642,-0.7617 -0.02552,0 -2.84641,2.8267 -2.84641,2.8522 0,0.014 0.129849,0.1516 0.377555,0.3989 0.328086,0.3277 0.380206,0.3755 0.397778,0.3658 0.01112,-0.01 0.655177,-0.6465 1.431231,-1.423 z m -42.974638,-3.3521 -9.1028646,-9.1028 20.7006336,-20.7005 c 11.385347,-11.3854 20.705504,-20.7007 20.71146,-20.7007 0.01575,0 18.167849,18.1545 18.167849,18.1703 0,0.012 -41.347643,41.4277 -41.36599,41.4339 -0.0045,0 -4.104513,-4.0936 -9.111088,-9.1002 z m 21.130872,-6.1722 c 6.389196,-6.3892 11.616721,-11.6215 11.616721,-11.6275 0,-0.012 -3.287204,-3.3033 -3.316314,-3.3194 -0.01798,-0.01 -1.423279,1.3915 -11.632945,11.6011 -7.754183,7.7542 -11.612497,11.6197 -11.612497,11.6341 0,0.014 0.555506,0.5772 1.653428,1.675 0.909386,0.9093 1.658257,1.6534 1.664157,1.6534 0.0059,0 5.238253,-5.2275 11.62745,-11.6167 z m -21.577369,-1.6615 c 0.909347,-0.9093 1.653357,-1.6607 1.653357,-1.6695 0,-0.018 -3.2998131,-3.323 -3.3174871,-3.323 -0.01411,0 -3.3283639,3.3141 -3.3283639,3.3282 0,0.018 3.3051849,3.3177 3.3228649,3.3177 0.009,0 0.760282,-0.744 1.6696291,-1.6534 z m 24.9003,-11.6193 c 1.823148,-1.8232 3.314814,-3.3197 3.314814,-3.3256 0,-0.01 -1.864267,-1.8751 -4.142814,-4.1537 -2.755458,-2.7555 -4.150065,-4.1429 -4.164468,-4.1429 -0.03002,0 -3.317546,3.2875 -3.317546,3.3176 0,0.014 0.831735,0.8533 2.478646,2.5003 l 2.478644,2.4786 -1.650619,1.6507 c -0.90784,0.9079 -1.65062,1.658 -1.65062,1.6669 0,0.022 3.301737,3.3228 3.322907,3.3228 0.009,0 1.507909,-1.4916 3.331056,-3.3147 z m 16.592982,-6.6351 c 2.733974,-2.7339 4.970863,-4.9781 4.970863,-4.9871 0,-0.022 -3.301686,-3.3229 -3.322926,-3.3229 -0.009,0 -0.759038,0.7429 -1.666875,1.6507 l -1.650611,1.6506 -1.650666,-1.6506 c -0.907865,-0.9078 -1.657959,-1.6507 -1.666875,-1.6507 -0.02123,0 -3.322925,3.3017 -3.322925,3.3229 0,0.01 0.74278,0.7591 1.650621,1.6669 l 1.650622,1.6506 -1.650622,1.6507 c -0.907841,0.908 -1.650621,1.658 -1.650621,1.6669 0,0.021 3.301736,3.3229 3.322908,3.3229 0.009,0 2.253133,-2.2369 4.987107,-4.9709 z m -5.413715,31.7594 c -0.431291,-0.068 -0.770687,-0.3693 -0.883303,-0.7843 -0.03006,-0.1107 -0.04064,-0.3289 -0.02166,-0.4465 0.02529,-0.1568 0.09811,-0.3287 0.198307,-0.4681 0.05541,-0.077 8.503741,-8.5299 8.617981,-8.6226 0.218128,-0.1769 0.525196,-0.2663 0.795561,-0.2314 0.445284,0.058 0.798192,0.3638 0.909992,0.7902 0.03014,0.1151 0.04006,0.3237 0.021,0.4418 -0.02518,0.1562 -0.09811,0.3282 -0.198172,0.4675 -0.06925,0.096 -8.594626,8.6156 -8.676211,8.6698 -0.101527,0.067 -0.25483,0.137 -0.358985,0.1623 -0.105593,0.026 -0.308876,0.036 -0.404507,0.022 z m -3.306258,-8.5869 c -2.228697,-2.2287 -4.050351,-4.0574 -4.048119,-4.0637 0.0071,-0.021 4.329732,-4.3532 4.342746,-4.3532 0.01526,0 8.114164,8.0973 8.114164,8.1125 0,0.01 -4.3406,4.3566 -4.351207,4.3566 -0.003,0 -1.828888,-1.8236 -4.057584,-4.0522 z m -31.980167,-31.9801 -6.6130918,-6.6131 -1.4529663,-5.80411 c -0.7991309,-3.19224 -1.4505173,-5.80653 -1.4475256,-5.80952 0.00299,-0.003 4.6166067,4.60571 10.2524757,10.24157 l 10.247036,10.24706 -2.175582,2.1756 c -1.196569,1.1965 -2.180456,2.1756 -2.186417,2.1756 -0.006,0 -2.986728,-2.9759 -6.623929,-6.6131 z"
       id="path3298"
       inkscape:connector-curvature="0" />
  </g>
</svg>
