<?xml version="1.0" encoding="UTF-8" standalone="no"?>
<svg id="svg2" xmlns:rdf="http://www.w3.org/1999/02/22-rdf-syntax-ns#" xmlns="http://www.w3.org/2000/svg" height="132" width="490" version="1.1" xmlns:cc="http://creativecommons.org/ns#" xmlns:dc="http://purl.org/dc/elements/1.1/">
 <g id="layer2">
  <path id="path3800" d="m179.88 0.375c-0.01 0.00615 1.35 5.375 3 11.937l2.96 11.938 13.6 13.594c7.47 7.477 13.61 13.594 13.62 13.594s2.04-2.01 4.5-4.469l4.47-4.469-21.06-21.062c-11.59-11.587-21.09-21.069-21.09-21.063zm85.28 5.375c-0.02 0-19.19 19.157-42.6 42.562l-42.53 42.563 18.72 18.715c10.29 10.3 18.71 18.69 18.72 18.69 0.04-0.01 85.03-85.13 85.03-85.155 0-0.032-37.31-37.375-37.34-37.375zm-201.5 23.156l-9.656 50.375h5.188l1.937-10.156h12.75l1.937 10.156h5.626l-9.657-50.375h-8.125zm24.125 0v50.375h5.625v-21.531h3.969c2.351 0 4.165 0.545 5.435 1.625s1.91 3.043 1.91 5.875v7.938c0 1.68 0.07 2.91 0.22 3.75 0.14 0.839 0.38 1.623 0.72 2.343h5.68c-0.48-0.864-0.78-1.812-0.87-2.843-0.1-1.032-0.13-2.084-0.13-3.188v-7.844c0-2.736-0.5-5.012-1.46-6.812-0.97-1.801-2.58-3.048-4.88-3.719 2.16-0.672 3.74-1.866 4.75-3.594s1.5-3.965 1.5-6.75v-4.125c0-3.744-0.87-6.594-2.63-8.562-1.75-1.968-4.61-2.938-8.589-2.938h-11.25zm28.379 0v5.094h9.28v45.281h5.53v-45.281h9.31v-5.094h-24.12zm29.84 0v50.375h5.62v-50.375h-5.62zm13.31 0v50.375h5.03v-40.75l12.88 40.75h5.84v-50.375h-4.97v36.406l-11.65-36.406h-7.13zm-65.904 5.094h5.469c2.115 0 3.615 0.567 4.505 1.719 0.88 1.152 1.34 2.883 1.34 5.187v4.844c0 2.736-0.63 4.564-1.88 5.5-1.24 0.936-2.99 1.406-5.246 1.406h-4.188v-18.656zm-26 1.219l5.688 29.093h-11.25l5.562-29.093zm205.47 3.656c0.01 0 1.53 1.509 3.4 3.375l3.41 3.406 3.4-3.406c1.87-1.866 3.39-3.375 3.41-3.375 0.04 0 6.84 6.767 6.84 6.813 0 0.018-4.59 4.629-10.22 10.25-5.62 5.62-10.23 10.218-10.24 10.218-0.05 0-6.85-6.769-6.85-6.812 0-0.019 1.54-1.571 3.41-3.438l3.37-3.375-3.37-3.406c-1.87-1.866-3.41-3.417-3.41-3.437 0-0.044 6.8-6.813 6.85-6.813zm-34.13 6.813c0.03 0 2.9 2.866 8.56 8.531 4.69 4.684 8.5 8.51 8.5 8.531 0 0.012-3.06 3.096-6.81 6.844s-6.83 6.812-6.84 6.812c-0.05 0-6.85-6.798-6.85-6.844 0-0.018 1.54-1.539 3.41-3.406l3.4-3.406-5.09-5.094c-3.38-3.386-5.09-5.096-5.09-5.125 0-0.062 6.75-6.843 6.81-6.843zm137.06 11.218l6.19 7.188h4.97l6.25-7.188h-4.97l-3.81 4.313-3.75-4.313h-4.88zm-116.56 9.25c0.06 0.033 6.81 6.819 6.81 6.844 0 0.012-10.74 10.771-23.87 23.906-13.14 13.134-23.9 23.874-23.91 23.874s-1.57-1.54-3.44-3.4c-2.25-2.26-3.4-3.41-3.4-3.44s7.93-7.97 23.87-23.909c20.99-20.988 23.9-23.895 23.94-23.875zm125.06 0.406c-1.92 0.001-3.61 0.307-5.03 0.907-1.41 0.6-2.56 1.427-3.5 2.531-0.93 1.105-1.64 2.441-2.09 4-0.46 1.559-0.69 3.298-0.69 5.219v26.061c0 3.84 0.9 6.92 2.75 9.22s4.72 3.47 8.56 3.47c3.89 0 6.75-1.17 8.6-3.47 1.84-2.3 2.78-5.38 2.78-9.22v-6.249h-5.35v6.559c0 2.31-0.47 4.08-1.4 5.35-0.94 1.27-2.44 1.9-4.5 1.9-2.02 0-3.51-0.63-4.47-1.9s-1.44-3.04-1.44-5.35v-26.652c0-2.305 0.48-4.104 1.44-5.376 0.96-1.271 2.45-1.906 4.47-1.906 2.06 0 3.56 0.635 4.5 1.906 0.93 1.272 1.4 3.071 1.4 5.376v4.812h5.35v-4.531c0-3.84-0.94-6.915-2.78-9.219-1.85-2.304-4.71-3.437-8.6-3.438zm-40.9 0.5v38.218c0 3.84 0.89 6.92 2.71 9.25 1.83 2.33 4.67 3.5 8.5 3.5 3.89 0 6.74-1.17 8.57-3.5 1.82-2.33 2.75-5.41 2.75-9.25v-38.218h-5.25v38.528c0 2.31-0.47 4.08-1.41 5.35-0.93 1.27-2.42 1.9-4.44 1.9-2.06 0-3.56-0.63-4.5-1.9-0.93-1.27-1.4-3.04-1.4-5.35v-38.528h-5.53zm59.4 0v50.408h20.75v-5.13h-15.12v-17.934h12.31v-5.031h-12.31v-17.219h15.12v-5.094h-20.75zm27.85 0v50.408h5.62v-21.532h3.97c2.35 0 4.17 0.544 5.44 1.624 1.27 1.081 1.9 3.008 1.9 5.848v7.93c0 1.68 0.08 2.95 0.22 3.78 0.15 0.84 0.39 1.63 0.72 2.35h5.69c-0.48-0.87-0.78-1.81-0.88-2.85-0.09-1.03-0.15-2.11-0.15-3.21v-7.85c0-2.73-0.48-5.01-1.44-6.81s-2.57-3.017-4.87-3.688c2.15-0.672 3.74-1.897 4.74-3.624 1.01-1.728 1.5-3.966 1.5-6.75v-4.094c0-3.744-0.87-6.626-2.62-8.594s-4.61-2.937-8.59-2.938h-11.25zm38.59 0l-9.66 50.408h5.19l1.94-10.16h12.75l1.94 10.16h5.62l-9.65-50.408h-8.13zm-32.97 5.094h5.47c2.11 0 3.61 0.598 4.5 1.75s1.34 2.884 1.34 5.188v4.812c0 2.737-0.62 4.564-1.87 5.5s-3 1.407-5.25 1.406h-4.19v-18.656zm36.72 1.25l5.69 29.064h-11.25l5.56-29.064zm-278.59 9.813c0.03 0 6.81 6.807 6.81 6.843 0 0.019-1.54 1.537-3.41 3.407-1.87 1.869-3.42 3.406-3.43 3.406-0.04 0-6.82-6.775-6.82-6.813 0-0.028 6.82-6.843 6.85-6.843zm71.4 3.062c-0.02 0-8.92 8.926-8.93 8.969-0.01 0.013 3.73 3.762 8.31 8.34 4.58 4.59 8.34 8.32 8.34 8.32 0.02 0 8.94-8.92 8.94-8.94 0-0.03-16.63-16.689-16.66-16.689zm23.66 13.25c-0.43 0.039-0.88 0.227-1.22 0.499-0.23 0.19-17.6 17.56-17.72 17.72-0.2 0.29-0.35 0.65-0.41 0.97-0.03 0.24 0.01 0.68 0.07 0.9 0.23 0.86 0.92 1.49 1.81 1.63 0.2 0.03 0.6-0.01 0.81-0.06 0.22-0.05 0.54-0.18 0.75-0.31 0.17-0.12 17.7-17.65 17.85-17.85 0.2-0.29 0.35-0.62 0.4-0.94 0.04-0.24 0-0.67-0.06-0.9-0.23-0.88-0.96-1.508-1.87-1.628-0.14-0.017-0.27-0.044-0.41-0.031zm-1.06 9.349l-4.5 4.46-4.47 4.5 7.06 7.04 7.06 7.06 0.38-0.38c0.21-0.2 2.21-2.21 4.47-4.47l4.12-4.12-7.06-7.06-7.06-7.03zm0 3.09c0.04 0 1.54 1.5 1.56 1.56 0.01 0.04-0.56 0.62-2.88 2.94-1.59 1.6-2.94 2.92-2.97 2.94s-0.13-0.08-0.81-0.75c-0.51-0.51-0.78-0.79-0.78-0.82 0-0.05 5.82-5.87 5.88-5.87zm3.12 3.12c0.01 0 0.39 0.36 0.81 0.79 0.51 0.5 0.78 0.78 0.78 0.81s-0.95 1.02-2.9 2.97c-1.6 1.6-2.95 2.9-2.97 2.9-0.04 0-1.56-1.55-1.56-1.59s5.81-5.88 5.84-5.88zm3.16 3.16c0.03 0 1.59 1.56 1.59 1.59 0 0.02-1.33 1.34-2.94 2.94-1.6 1.61-2.92 2.91-2.93 2.91-0.04 0-1.6-1.53-1.6-1.57 0-0.03 5.84-5.87 5.88-5.87zm3.19 3.16c0.07 0.04 1.34 1.34 1.34 1.37 0 0.02-1.33 1.33-2.94 2.94-1.61 1.6-2.92 2.94-2.94 2.94-0.03 0-1.37-1.34-1.37-1.38 0-0.02 1.33-1.36 2.94-2.97 2.56-2.56 2.93-2.92 2.97-2.9z"/>
  <path id="path3786" fill="#9a0718" d="m28.875 79.196h-7.1262l-11.02-52.916v53.011h-6.4594v-66.501h10.356l10.924 53.107 10.544-53.107h10.356v66.501h-7.0305v-53.484z"/>
  <path id="path3783" fill="#9a0718" d="m315.28 89.156-3.8936 6.555v22.324h-7.4103v-66.501h7.4103v32.111l17.668-32.111h7.506l-16.815 30.305 17.386 36.196h-7.6016z"/>
 </g>
</svg>
