<?xml version="1.0" encoding="UTF-8" standalone="no"?>
<svg id="svg2" xmlns:rdf="http://www.w3.org/1999/02/22-rdf-syntax-ns#" xmlns="http://www.w3.org/2000/svg" height="116" width="526" version="1.1" xmlns:cc="http://creativecommons.org/ns#" xmlns:dc="http://purl.org/dc/elements/1.1/">
 <g id="layer4">
  <path id="path3861" d="m98 5.25c-8.099 0.0001-14.112 2.375-18.062 7.125-3.951 4.75-5.938 11.182-5.938 19.281v54.282c0 8.001 1.987 14.422 5.938 19.222 3.95 4.8 9.963 7.18 18.062 7.18 8.1 0 14.16-2.38 18.16-7.18s6-11.221 6-19.222v-54.282c0-8.099-2-14.531-6-19.281s-10.06-7.1249-18.16-7.125zm230.72 0c-8.1 0.0001-14.11 2.375-18.06 7.125s-5.94 11.182-5.94 19.281v54.282c0 8.001 1.99 14.422 5.94 19.222s9.96 7.18 18.06 7.18 14.15-2.38 18.16-7.18c4-4.8 5.99-11.221 6-19.222v-54.282c-0.01-8.099-2-14.531-6-19.281-4.01-4.75-10.06-7.1249-18.16-7.125zm167.56 0c-8.1 0.0001-14.14 2.375-18.09 7.125s-5.91 11.182-5.91 19.281v54.282c0 8.001 1.96 14.422 5.91 19.222s9.99 7.18 18.09 7.18 14.16-2.38 18.16-7.18 6-11.221 6-19.222v-54.282c0-8.099-2-14.531-6-19.281s-10.06-7.1249-18.16-7.125zm-351.47 1.0625v105h11.72v-44.872h8.25c4.9 0 8.66 1.124 11.31 3.374 2.65 2.251 3.97 6.351 3.97 12.25v16.5c0 3.498 0.14 6.128 0.44 7.878s0.8 3.37 1.5 4.87h11.88c-1.01-1.8-1.62-3.79-1.82-5.93-0.2-2.15-0.31-4.39-0.31-6.692v-16.344c0-5.701-1-10.406-3-14.156-2-3.751-5.39-6.321-10.19-7.719 4.5-1.401 7.81-3.932 9.91-7.531 2.1-3.6 3.15-8.293 3.15-14.094v-8.532c0-7.8-1.85-13.774-5.5-17.874-3.64-4.1004-9.6-6.1254-17.9-6.1255h-23.41zm66.75 0v10.626h19.35v94.372h11.68v-94.372h19.38v-10.626h-50.41zm163.97 0v105h41.72v-10.65h-30v-94.348h-11.72zm62.31 0v105h11.69v-105h-11.69zm-339.84 9.5935c4.3 0 7.47 1.32 9.47 3.969s3 6.387 3 11.187v55.5c0 4.801-1 8.506-3 11.157s-5.17 3.971-9.47 3.971c-4.199 0-7.324-1.32-9.375-3.971s-3.063-6.356-3.063-11.157v-55.5c0-4.8 1.012-8.538 3.063-11.187s5.176-3.969 9.375-3.969zm230.72 0c4.3 0 7.47 1.32 9.47 3.969s3 6.387 3 11.187v55.5c0 4.801-1 8.506-3 11.157s-5.17 3.971-9.47 3.971c-4.2 0-7.33-1.32-9.38-3.971s-3.06-6.356-3.06-11.157v-55.5c0-4.8 1.01-8.538 3.06-11.187s5.18-3.969 9.38-3.969zm167.56 0c4.3 0 7.44 1.32 9.44 3.969s3 6.387 3 11.187v55.5c0 4.801-1 8.506-3 11.157s-5.14 3.971-9.44 3.971c-4.2 0-7.32-1.32-9.37-3.971s-3.1-6.356-3.1-11.157v-55.5c0-4.8 1.05-8.538 3.1-11.187s5.17-3.969 9.37-3.969zm-339.75 1.032h11.38c4.4 0 7.52 1.224 9.37 3.624 1.85 2.401 2.78 5.981 2.78 10.782v10.062c0 5.701-1.3 9.519-3.9 11.469s-6.24 2.938-10.94 2.937h-8.69v-38.874z"/>
  <path id="path3868" d="m7.0312 5.25v105h11.719v-41.375h10.344c8.398 0 14.58-2.125 18.531-6.375 3.95-4.25 5.906-10.598 5.906-19v-12.594c0-8.001-1.831-14.262-5.531-18.812-3.7-4.5503-9.699-6.8439-18-6.844h-22.969zm235 1.0625v105h11.72v-45.466h24.13v-10.656h-24.13v-38.25h30v-10.626h-41.72zm-223.28 9.5935h11.25c4.3 0 7.368 1.194 9.219 3.594s2.781 6.012 2.781 10.812v13.938c0 5.1-1.055 8.725-3.156 10.875s-5.353 3.25-9.75 3.25h-10.344v-42.469z" fill="#9a0718"/>
 </g>
</svg>
