<?xml version="1.0" encoding="utf-8"?>

<!-- License Agreement at http://iconmonstr.com/license/ -->

<!DOCTYPE svg PUBLIC "-//W3C//DTD SVG 1.1//EN" "http://www.w3.org/Graphics/SVG/1.1/DTD/svg11.dtd">
<svg version="1.1" xmlns="http://www.w3.org/2000/svg" xmlns:xlink="http://www.w3.org/1999/xlink" x="0px" y="0px"
	 width="512px" height="512px" viewBox="0 0 512 512" style="enable-background:new 0 0 512 512;" xml:space="preserve">
<path id="crop-12" d="M427.666,118.667v274.667H84.333V118.667H427.666z M462,84.334H50v343.332h412V84.334z M376.166,309.076
	V202.925c9.976-3.555,17.168-12.984,17.168-24.175c0-14.216-11.535-25.75-25.75-25.75c-11.199,0-20.621,7.192-24.175,17.167H168.591
	C165.037,160.192,155.615,153,144.417,153c-14.217,0-25.75,11.534-25.75,25.75c0,11.19,7.191,20.62,17.166,24.175v106.151
	c-9.975,3.554-17.166,12.975-17.166,24.174c0,14.217,11.533,25.75,25.75,25.75c11.198,0,20.62-7.191,24.174-17.166h174.818
	c3.554,9.975,12.976,17.166,24.175,17.166c14.215,0,25.75-11.533,25.75-25.75C393.334,322.051,386.142,312.63,376.166,309.076z
	 M343.409,324.666H168.591c-2.582-7.275-8.315-13.008-15.591-15.59V202.925c7.275-2.591,12.992-8.315,15.591-15.591h174.818
	c2.599,7.275,8.315,13,15.591,15.591v106.151C351.725,311.658,345.99,317.391,343.409,324.666z M187.333,221.667
	c0-9.48,7.695-17.167,17.167-17.167s17.167,7.687,17.167,17.167s-7.695,17.167-17.167,17.167S187.333,231.147,187.333,221.667z
	 M324.666,307.5l-47.208-85.833l-32.455,51.231l-23.336-22.531L187.333,307.5H324.666z"/>
</svg>
