<?xml version="1.0" encoding="utf-8"?>

<!-- License Agreement at http://iconmonstr.com/license/ -->

<!DOCTYPE svg PUBLIC "-//W3C//DTD SVG 1.1//EN" "http://www.w3.org/Graphics/SVG/1.1/DTD/svg11.dtd">
<svg version="1.1" xmlns="http://www.w3.org/2000/svg" xmlns:xlink="http://www.w3.org/1999/xlink" x="0px" y="0px"
	 width="512px" height="512px" viewBox="0 0 512 512" enable-background="new 0 0 512 512" xml:space="preserve">
<path id="cut-icon" d="M242.889,296.531c-59.646,28.622-120.253,57.593-137.073,65.656C74.078,377.396,45,337.467,45,337.467
	l141.831-67.979L242.889,296.531z M450.734,372.458c-16.589,34.389-60.817,47.545-98.591,29.329
	c-33.354-16.087-50.693-51.335-42.883-83.043c4.457-18.086-5.094-20.542-19.657-27.575L46.034,173.692
	c0,0,29.178-39.855,60.875-24.571c19.467,9.391,97.657,46.996,165.029,79.579l16.92-8.11c14.584-6.999,24.141-9.432,19.727-27.527
	c-7.731-31.729,9.694-66.933,43.089-82.936c37.816-18.126,82.012-4.86,98.517,29.572c16.505,34.431-1.158,76.546-38.658,95.319
	c-27.906,13.97-47.474,3.089-75.189,16.514c-2.779,1.346-5.675,2.75-8.659,4.191c3.275,1.595,6.446,3.137,9.479,4.616
	c27.686,13.498,47.278,2.664,75.149,16.702C449.766,295.909,467.322,338.065,450.734,372.458z M343.725,190.729
	c8.389,17.497,32.204,23.589,53.087,13.579c20.885-10.01,31.052-32.388,22.668-49.888c-8.39-17.5-32.203-23.59-53.089-13.58
	C345.504,150.846,335.336,173.225,343.725,190.729z M280.953,252.749c0-6.985-5.663-12.648-12.648-12.648
	c-6.986,0-12.649,5.664-12.649,12.648c0,6.986,5.663,12.649,12.649,12.649C275.29,265.398,280.953,259.735,280.953,252.749z
	 M397.518,307.716c-20.86-10.062-44.688-4.027-53.122,13.448c-8.432,17.482,1.681,39.887,22.545,49.948
	c20.859,10.06,44.686,4.029,53.121-13.452C428.486,340.182,418.374,317.779,397.518,307.716z"/>
</svg>
