<?xml version="1.0" encoding="utf-8"?>

<!-- License Agreement at http://iconmonstr.com/license/ -->

<!DOCTYPE svg PUBLIC "-//W3C//DTD SVG 1.1//EN" "http://www.w3.org/Graphics/SVG/1.1/DTD/svg11.dtd">
<svg version="1.1" xmlns="http://www.w3.org/2000/svg" xmlns:xlink="http://www.w3.org/1999/xlink" x="0px" y="0px"
	 width="512px" height="512px" viewBox="0 0 512 512" style="enable-background:new 0 0 512 512;" xml:space="preserve">
<path id="diamond-5" d="M410.5,118.667l-85.834-51.5H187.333l-85.833,51.5L50,204.5l206,240.334l206-241.047L410.5,118.667z
	 M182.405,272.715l25.113,62.799l-75.171-87.687L182.405,272.715z M296.871,187.333l9.959,49.866l-0.654,1.634H205.824l-0.654-1.634
	l9.958-49.866H296.871z M292.445,273.166L256,364.264l-36.446-91.098H292.445z M329.596,272.73l49.455-24.728l-74.367,87.024
	L329.596,272.73z M414.624,191.817l-74.399,37.217l-9.842-49.169l62.682-23.697L414.624,191.817z M196.855,101.5h118.289
	l48.482,29.086L304.365,153h-96.814l-59.949-21.961L196.855,101.5z M118.566,156.956l63.017,23.093l-9.807,49.036L97.46,192.119
	L118.566,156.956z"/>
</svg>
