<?xml version="1.0" encoding="utf-8"?>

<!-- License Agreement at http://iconmonstr.com/license/ -->

<!DOCTYPE svg PUBLIC "-//W3C//DTD SVG 1.1//EN" "http://www.w3.org/Graphics/SVG/1.1/DTD/svg11.dtd">
<svg version="1.1" xmlns="http://www.w3.org/2000/svg" xmlns:xlink="http://www.w3.org/1999/xlink" x="0px" y="0px"
	 width="512px" height="512px" viewBox="0 0 512 512" enable-background="new 0 0 512 512" xml:space="preserve">
<path id="rocket-10-icon" d="M269.418,462c55.074-28.27,87.182-89.014,83.71-131.721c-22.055,14.989-59.403,33.205-79.173,39.447
	C296.102,404.973,290.133,434.461,269.418,462z M142.36,238.132c6.243-19.771,24.46-57.118,39.448-79.173
	C139.1,155.484,78.359,187.594,50.088,242.67C77.625,221.955,107.115,215.984,142.36,238.132z M251.464,345.998l-85.294-85.295
	c32.542-98.504,127.049-222.775,294.613-209.76C474.934,218.625,353.33,310.238,251.464,345.998z M311.134,233.413
	c8.964-8.964,8.964-23.497,0-32.461c-8.965-8.962-23.496-8.962-32.461,0.004c-8.962,8.962-8.964,23.494,0,32.457
	C287.637,242.377,302.17,242.377,311.134,233.413z M385.043,180.601c14.791-14.788,14.793-38.771,0.002-53.56
	s-38.771-14.789-53.561,0c-14.791,14.791-14.789,38.77,0,53.561C346.275,195.391,370.253,195.391,385.043,180.601z M91.528,380.141
	l-15.557-15.557l75.667-75.666l15.557,15.557L91.528,380.141z M169.361,417.974l-15.557-15.557l55.667-55.666l15.557,15.557
	L169.361,417.974z M89.361,440.307L73.805,424.75l87.501-87.499l15.557,15.557L89.361,440.307z"/>
</svg>
