<?xml version="1.0" encoding="utf-8"?>


<!-- The icon can be used freely in both personal and commercial projects with no attribution required, but always appreciated. 
You may NOT sub-license, resell, rent, redistribute or otherwise transfer the icon without express written permission from iconmonstr.com -->


<!DOCTYPE svg PUBLIC "-//W3C//DTD SVG 1.1//EN" "http://www.w3.org/Graphics/SVG/1.1/DTD/svg11.dtd">

<svg version="1.1" xmlns="http://www.w3.org/2000/svg" xmlns:xlink="http://www.w3.org/1999/xlink" x="0px" y="0px"

	 width="512px" height="512px" viewBox="0 0 512 512" enable-background="new 0 0 512 512" xml:space="preserve">

<path id="wordpress-circle-outline-icon" d="M256,90c44.34,0,86.026,17.267,117.38,48.62C404.733,169.974,422,211.66,422,256

	c0,44.34-17.267,86.026-48.62,117.38C342.026,404.732,300.34,422,256,422s-86.026-17.268-117.38-48.62

	C107.267,342.026,90,300.34,90,256c0-44.34,17.267-86.026,48.62-117.38C169.974,107.267,211.66,90,256,90 M256,50

	C142.229,50,50,142.229,50,256s92.229,206,206,206s206-92.229,206-206S369.771,50,256,50L256,50z M333.516,170.532

	c-6.843,2.227-21.445,16.478-2.928,41.899c18.518,25.42,7.558,54.378,7.558,54.378l-16.14,53.564l-40.638-120.875

	c0,0,11.475-0.859,13.115-1.105c1.643-0.247,4.372-1.86,3.916-5.293c-0.454-3.433-2.978-3.929-5.375-3.805

	c-1.205,0.062-15.374,1.132-29.448,1.13c-13.986-0.001-27.881-1.077-28.868-1.13c-1.986-0.111-4.854,0.111-5.544,3.226

	c-0.495,2.605,0.746,5.501,3.558,5.832c2.812,0.33,0.928,0.084,12.292,1.145c0,0,7.728,21.158,17.503,47.926l-24.749,73.475

	l-40.771-121.401c0,0,11.475-0.859,13.115-1.105c1.642-0.247,4.371-1.86,3.917-5.293c-0.456-3.433-2.979-3.929-5.378-3.805

	c-1.203,0.062-15.371,1.132-29.446,1.13c-13.986-0.001-27.88-1.077-28.87-1.13c-1.983-0.111-4.852,0.111-5.541,3.226

	c-0.496,2.605,0.745,5.501,3.558,5.832c2.812,0.33,0.928,0.084,12.293,1.145c0,0,54.25,148.554,57.126,156.525

	c2.875,7.971,14.787,10.039,18.179-0.384c2.507-7.704,22.008-64.31,32.01-93.312c15.184,41.589,32.587,89.273,34.182,93.695

	c2.878,7.971,14.789,10.039,18.181-0.384c3.391-10.422,22.582-64.214,39.043-112.384

	C373.921,199.359,360.412,161.783,333.516,170.532z"/>

</svg>

